<svg width="309" height="115" viewBox="0 0 309 115" fill="none" xmlns="http://www.w3.org/2000/svg">
<g filter="url(#filter0_b_275_11554)">
<line y1="-0.242565" x2="47.5046" y2="-0.242565" transform="matrix(-5.53096e-08 1 1 3.45453e-08 7.42627 67.3602)" stroke="#43464D" stroke-opacity="0.1" stroke-width="0.48513"/>
<rect width="14.1269" height="32.3895" transform="matrix(1 0 0 -1 0 107.307)" fill="#FF6058" fill-opacity="0.1"/>
<line y1="-0.242565" x2="69.0975" y2="-0.242565" transform="matrix(7.61027e-08 1 1 -2.51067e-08 27.9629 43.6079)" stroke="#43464D" stroke-opacity="0.1" stroke-width="0.48513"/>
<rect width="14.1269" height="58.301" transform="matrix(1 0 0 -1 20.4189 107.389)" fill="#00E291" fill-opacity="0.1"/>
<line y1="-0.242565" x2="38.8674" y2="-0.242565" transform="matrix(-5.53096e-08 1 1 3.45453e-08 47.6162 43.6079)" stroke="#43464D" stroke-opacity="0.1" stroke-width="0.48513"/>
<rect width="14.1269" height="26.9912" transform="matrix(1 0 0 -1 39.9531 75.9973)" fill="#FF6058" fill-opacity="0.1"/>
<line x1="65.6356" y1="7.97961" x2="65.6356" y2="83.5551" stroke="#43464D" stroke-opacity="0.1" stroke-width="0.48513"/>
<rect width="14.1269" height="59.3807" transform="matrix(1 0 0 -1 59.2739 75.9974)" fill="#00E291" fill-opacity="0.1"/>
<line y1="-0.242565" x2="47.5046" y2="-0.242565" transform="matrix(-5.53096e-08 1 1 3.45453e-08 238.411 43.9364)" stroke="#43464D" stroke-opacity="0.1" stroke-width="0.48513"/>
<rect width="14.1269" height="32.3895" transform="matrix(1 0 0 -1 230.985 83.8835)" fill="#FF6058" fill-opacity="0.1"/>
<line y1="-0.242565" x2="69.0975" y2="-0.242565" transform="matrix(7.61027e-08 1 1 -2.51067e-08 260.216 20.1841)" stroke="#43464D" stroke-opacity="0.1" stroke-width="0.48513"/>
<rect width="14.1269" height="58.301" transform="matrix(1 0 0 -1 252.672 83.9652)" fill="#00E291" fill-opacity="0.1"/>
<line y1="-0.242565" x2="37.7877" y2="-0.242565" transform="matrix(-5.53096e-08 1 1 3.45453e-08 93.0381 16.1948)" stroke="#43464D" stroke-opacity="0.1" stroke-width="0.48513"/>
<rect width="14.1269" height="29.1505" transform="matrix(1 0 0 -1 85.019 49.6638)" fill="#00E291" fill-opacity="0.1"/>
<line y1="-0.242565" x2="51.8232" y2="-0.242565" transform="matrix(5.57405e-08 1 1 -3.42782e-08 113.79 15.1149)" stroke="#43464D" stroke-opacity="0.1" stroke-width="0.48513"/>
<rect width="14.1269" height="41.0267" transform="matrix(1 0 0 -1 105.652 61.5399)" fill="#FF6058" fill-opacity="0.1"/>
<line y1="-0.242565" x2="38.8674" y2="-0.242565" transform="matrix(0 1 1 0 133.256 28.0708)" stroke="#43464D" stroke-opacity="0.1" stroke-width="0.48513"/>
<rect width="14.1269" height="28.0709" transform="matrix(1 0 0 -1 126.284 61.5398)" fill="#00E291" fill-opacity="0.1"/>
<line y1="-0.242565" x2="23.4907" y2="-0.242565" transform="matrix(0 1 1 0 280.454 22.546)" stroke="#43464D" stroke-opacity="0.1" stroke-width="0.48513"/>
<rect width="14.1269" height="16.9655" transform="matrix(1 0 0 -1 273.482 42.7747)" fill="#FF6058" fill-opacity="0.1"/>
<line y1="-0.242565" x2="30.2302" y2="-0.242565" transform="matrix(6.15279e-08 -1 -1 -1.24216e-07 217.005 56.142)" stroke="#43464D" stroke-opacity="0.1" stroke-width="0.48513"/>
<rect width="14.1269" height="19.4337" transform="matrix(-1 -1.24216e-07 -6.15279e-08 1 224.71 31.3098)" fill="#FF6058" fill-opacity="0.1"/>
<line x1="153.842" y1="-4.95784e-09" x2="153.842" y2="37.7877" stroke="#43464D" stroke-opacity="0.1" stroke-width="0.48513"/>
<rect width="14.1269" height="26.9912" transform="matrix(1 0 0 -1 146.974 32.3894)" fill="#00E291" fill-opacity="0.1"/>
<line y1="-0.242565" x2="37.7877" y2="-0.242565" transform="matrix(1.26731e-07 -1 -1 -1.3569e-07 195.972 63.6993)" stroke="#43464D" stroke-opacity="0.1" stroke-width="0.48513"/>
<rect width="14.1269" height="26.9912" transform="matrix(-1 -1.24216e-07 -6.15279e-08 1 203.677 31.3098)" fill="#00E291" fill-opacity="0.1"/>
<line y1="-0.242565" x2="48.3546" y2="-0.242565" transform="matrix(9.90369e-08 -1 -1 -1.73634e-07 301.294 49.5822)" stroke="#43464D" stroke-opacity="0.1" stroke-width="0.48513"/>
<rect width="14.1269" height="34.539" transform="matrix(-1 -1.58951e-07 -4.80823e-08 1 309 8.13306)" fill="#00E291" fill-opacity="0.1"/>
<line y1="-0.242565" x2="64.7789" y2="-0.242565" transform="matrix(5.53096e-08 1 1 -3.45453e-08 175.708 0)" stroke="#43464D" stroke-opacity="0.1" stroke-width="0.48513"/>
<rect width="14.1269" height="53.9825" transform="matrix(1 0 0 -1 168.586 59.0415)" fill="#FF6058" fill-opacity="0.1"/>
</g>
<defs>
<filter id="filter0_b_275_11554" x="-4" y="-4" width="317" height="122.865" filterUnits="userSpaceOnUse" color-interpolation-filters="sRGB">
<feFlood flood-opacity="0" result="BackgroundImageFix"/>
<feGaussianBlur in="BackgroundImageFix" stdDeviation="2"/>
<feComposite in2="SourceAlpha" operator="in" result="effect1_backgroundBlur_275_11554"/>
<feBlend mode="normal" in="SourceGraphic" in2="effect1_backgroundBlur_275_11554" result="shape"/>
</filter>
</defs>
</svg>
