<svg width="34" height="49" viewBox="0 0 34 49" fill="none" xmlns="http://www.w3.org/2000/svg">
<g filter="url(#filter0_ddd_40_657)">
<rect x="16.1699" y="20.4692" width="1.70046" height="7.57479" fill="#BF7F02"/>
<path d="M8.38828 31.3648C8.38828 30.1868 9.34319 29.2319 10.5211 29.2319H23.5754C24.7534 29.2319 25.7083 30.1868 25.7083 31.3648V38.1661H8.38828V31.3648Z" fill="#243B6D"/>
<path d="M15.0877 28.8492C15.0877 28.3191 15.5174 27.8894 16.0475 27.8894H17.9926C18.5227 27.8894 18.9524 28.3191 18.9524 28.8492V29.2807H15.0877V28.8492Z" fill="#DCAE0C"/>
<rect x="10.8799" y="31.7756" width="12.435" height="4.24183" fill="#F9B50E" stroke="#FFEC86" stroke-width="0.550381"/>
<path d="M11.6868 31.5004H17.5612L22.1988 36.2926H16.3245L11.6868 31.5004Z" fill="#FFEC86"/>
<rect x="7.29819" y="38.1661" width="19.379" height="1.85505" fill="#DE9300"/>
<path d="M17 1.20964L20.8935 8.99668L21.0112 9.23206L21.2723 9.2647L29.0096 10.2319L23.6819 16.2062L23.5247 16.3824L23.564 16.6153L25.0205 25.2373L17.2199 21.337L17 21.227L16.7801 21.337L8.98105 25.2365L10.4503 16.6161L10.4901 16.3824L10.3322 16.2057L4.99174 10.2317L12.7277 9.2647L12.9888 9.23206L13.1065 8.99668L17 1.20964Z" fill="#FFEC86" stroke="#FFB802" stroke-width="0.983453"/>
<path d="M17 5.97473L19.6391 11.2529L24.9173 11.9127L21.2929 15.9769L22.2782 21.8093L17 19.1702L11.7218 21.8093L12.7159 15.9769L9.0827 11.9127L14.3609 11.2529L17 5.97473Z" fill="#DE9300"/>
<path d="M17.0586 19.1702L22.3759 21.8093C22.3759 21.8093 21.9503 18.5014 17.6299 15.9769C13.3094 13.4524 14.4 11.2529 14.4 11.2529L9.0827 11.9127L12.7428 15.9769L11.7413 21.8093L17.0586 19.1702Z" fill="#CB8600"/>
<path d="M21.4571 33.2393L22.244 31.5075L21.4571 29.7758L23.1888 30.5627L24.9206 29.7758L24.1337 31.5075L24.9206 33.2393L23.1888 32.4524L21.4571 33.2393Z" fill="white"/>
</g>
<defs>
<filter id="filter0_ddd_40_657" x="0" y="3.12328e-05" width="34" height="48.0212" filterUnits="userSpaceOnUse" color-interpolation-filters="sRGB">
<feFlood flood-opacity="0" result="BackgroundImageFix"/>
<feColorMatrix in="SourceAlpha" type="matrix" values="0 0 0 0 0 0 0 0 0 0 0 0 0 0 0 0 0 0 127 0" result="hardAlpha"/>
<feOffset dx="0.770534" dy="0.770534"/>
<feGaussianBlur stdDeviation="0.440305"/>
<feComposite in2="hardAlpha" operator="out"/>
<feColorMatrix type="matrix" values="0 0 0 0 0 0 0 0 0 0 0 0 0 0 0 0 0 0 0.3 0"/>
<feBlend mode="normal" in2="BackgroundImageFix" result="effect1_dropShadow_40_657"/>
<feColorMatrix in="SourceAlpha" type="matrix" values="0 0 0 0 0 0 0 0 0 0 0 0 0 0 0 0 0 0 127 0" result="hardAlpha"/>
<feOffset dy="4"/>
<feGaussianBlur stdDeviation="2"/>
<feComposite in2="hardAlpha" operator="out"/>
<feColorMatrix type="matrix" values="0 0 0 0 0 0 0 0 0 0 0 0 0 0 0 0 0 0 0.25 0"/>
<feBlend mode="normal" in2="effect1_dropShadow_40_657" result="effect2_dropShadow_40_657"/>
<feColorMatrix in="SourceAlpha" type="matrix" values="0 0 0 0 0 0 0 0 0 0 0 0 0 0 0 0 0 0 127 0" result="hardAlpha"/>
<feOffset dy="4"/>
<feGaussianBlur stdDeviation="2"/>
<feComposite in2="hardAlpha" operator="out"/>
<feColorMatrix type="matrix" values="0 0 0 0 0 0 0 0 0 0 0 0 0 0 0 0 0 0 0.25 0"/>
<feBlend mode="normal" in2="effect2_dropShadow_40_657" result="effect3_dropShadow_40_657"/>
<feBlend mode="normal" in="SourceGraphic" in2="effect3_dropShadow_40_657" result="shape"/>
</filter>
</defs>
</svg>
