<svg width="24" height="24" viewBox="0 0 24 24" fill="none" xmlns="http://www.w3.org/2000/svg">
<path d="M16.73 2.065H7.27004C6.64266 2.10269 6.05549 2.38639 5.63607 2.85449C5.21666 3.32259 4.99888 3.93726 5.03004 4.565V19.435C4.99888 20.0627 5.21666 20.6774 5.63607 21.1455C6.05549 21.6136 6.64266 21.8973 7.27004 21.935H16.73C17.3574 21.8973 17.9446 21.6136 18.364 21.1455C18.7834 20.6774 19.0012 20.0627 18.97 19.435V4.565C19.0012 3.93726 18.7834 3.32259 18.364 2.85449C17.9446 2.38639 17.3574 2.10269 16.73 2.065ZM17.97 19.435C18.0006 19.7975 17.8878 20.1576 17.656 20.438C17.4242 20.7184 17.0918 20.8968 16.73 20.935H7.27004C6.90825 20.8968 6.57583 20.7184 6.34403 20.438C6.11224 20.1576 5.99952 19.7975 6.03004 19.435V4.565C5.99952 4.20248 6.11224 3.84243 6.34403 3.56204C6.57583 3.28164 6.90825 3.10321 7.27004 3.065H8.80004V3.575C8.80004 3.84022 8.90539 4.09457 9.09293 4.28211C9.28047 4.46964 9.53482 4.575 9.80004 4.575H14.2C14.4653 4.575 14.7196 4.46964 14.9071 4.28211C15.0947 4.09457 15.2 3.84022 15.2 3.575V3.065H16.73C17.0918 3.10321 17.4242 3.28164 17.656 3.56204C17.8878 3.84243 18.0006 4.20248 17.97 4.565V19.435Z" fill="#A4A4A4"/>
<path d="M10 18.934H14C14.1326 18.934 14.2598 18.8813 14.3536 18.7876C14.4473 18.6938 14.5 18.5666 14.5 18.434C14.5 18.3014 14.4473 18.1742 14.3536 18.0804C14.2598 17.9867 14.1326 17.934 14 17.934H10C9.86739 17.934 9.74021 17.9867 9.64645 18.0804C9.55268 18.1742 9.5 18.3014 9.5 18.434C9.5 18.5666 9.55268 18.6938 9.64645 18.7876C9.74021 18.8813 9.86739 18.934 10 18.934Z" fill="#A4A4A4"/>
</svg>
