<svg width="36" height="36" viewBox="0 0 36 36" fill="none" xmlns="http://www.w3.org/2000/svg">
<g filter="url(#filter0_d_28_1442)">
<path d="M14.8231 16.157C14.8231 17.3896 15.7762 18.3808 16.9453 18.3808H19.3343C20.3509 18.3808 21.1769 17.5167 21.1769 16.4365C21.1769 15.2801 20.6686 14.8608 19.9189 14.5939L16.0939 13.2596C15.3441 12.9927 14.8358 12.5861 14.8358 11.417C14.8358 10.3495 15.6618 9.4727 16.6784 9.4727H19.0675C20.2366 9.4727 21.1897 10.4639 21.1897 11.6966" stroke="#F9C809" stroke-width="2.41154" stroke-linecap="round" stroke-linejoin="round"/>
<path d="M18 8.21484V19.6518" stroke="#F9C809" stroke-width="2.41154" stroke-linecap="round" stroke-linejoin="round"/>
<path d="M30.7077 13.9333C30.7077 20.948 25.0146 26.641 18 26.641C10.9853 26.641 5.29228 20.948 5.29228 13.9333C5.29228 6.91865 10.9853 1.2256 18 1.2256" stroke="#F9C809" stroke-width="2.41154" stroke-linecap="round" stroke-linejoin="round"/>
<path d="M30.7077 6.30868V1.2256H25.6246" stroke="#F9C809" stroke-width="2.41154" stroke-linecap="round" stroke-linejoin="round"/>
<path d="M24.3538 7.57945L30.7077 1.2256" stroke="#F9C809" stroke-width="2.41154" stroke-linecap="round" stroke-linejoin="round"/>
</g>
<defs>
<filter id="filter0_d_28_1442" x="0" y="0" width="36" height="35.9995" filterUnits="userSpaceOnUse" color-interpolation-filters="sRGB">
<feFlood flood-opacity="0" result="BackgroundImageFix"/>
<feColorMatrix in="SourceAlpha" type="matrix" values="0 0 0 0 0 0 0 0 0 0 0 0 0 0 0 0 0 0 127 0" result="hardAlpha"/>
<feOffset dy="4"/>
<feGaussianBlur stdDeviation="2"/>
<feComposite in2="hardAlpha" operator="out"/>
<feColorMatrix type="matrix" values="0 0 0 0 0 0 0 0 0 0 0 0 0 0 0 0 0 0 0.25 0"/>
<feBlend mode="normal" in2="BackgroundImageFix" result="effect1_dropShadow_28_1442"/>
<feBlend mode="normal" in="SourceGraphic" in2="effect1_dropShadow_28_1442" result="shape"/>
</filter>
</defs>
</svg>
