<svg width="42" height="42" viewBox="0 0 42 42" fill="none" xmlns="http://www.w3.org/2000/svg">
<g clip-path="url(#clip0_0_178)">
<path d="M42 21C42 25.1534 40.7684 29.2135 38.4609 32.667C36.1534 36.1204 32.8736 38.812 29.0364 40.4015C25.1991 41.9909 20.9767 42.4068 16.9031 41.5965C12.8295 40.7862 9.08767 38.7861 6.15077 35.8492C3.21386 32.9123 1.21381 29.1705 0.403519 25.0969C-0.406771 21.0233 0.00909889 16.8009 1.59854 12.9636C3.18798 9.1264 5.8796 5.84665 9.33304 3.53914C12.7865 1.23163 16.8466 0 21 0C26.5696 0 31.911 2.21249 35.8493 6.15076C39.7875 10.089 42 15.4305 42 21Z" fill="#E6007A"/>
<path d="M20.6535 9.1875C15.7881 9.1875 11.8125 13.1408 11.8125 18.0285C11.8125 19.0116 11.9752 19.971 12.2797 20.9055C12.3875 21.214 12.6121 21.4679 12.9052 21.6125C13.1983 21.7571 13.5365 21.7808 13.8469 21.6786C14.1552 21.5705 14.4087 21.3458 14.553 21.0527C14.6974 20.7597 14.7209 20.4217 14.6186 20.1114C14.362 19.3828 14.2432 18.6129 14.2682 17.8408C14.3614 14.5438 17.0284 11.8296 20.3267 11.6668C21.1907 11.6214 22.0548 11.7522 22.8666 12.0514C23.6784 12.3505 24.4209 12.8116 25.0489 13.4067C25.6769 14.0017 26.1773 14.7184 26.5196 15.5129C26.8619 16.3075 27.039 17.1633 27.0401 18.0285C27.0382 19.6556 26.4148 21.2204 25.2975 22.4031C24.1801 23.5859 22.6532 24.2971 21.0289 24.3915C21.0289 24.3915 19.7886 24.4611 19.1809 24.5556C18.8764 24.6015 18.6427 24.6488 18.4787 24.6724C18.4078 24.696 18.3382 24.6251 18.3606 24.5543L18.5719 23.5266L19.7177 18.2398C19.7845 17.9237 19.7238 17.594 19.5488 17.3224C19.3738 17.0508 19.0986 16.8593 18.7832 16.7895C18.4669 16.7228 18.137 16.7836 17.8654 16.9589C17.5938 17.1342 17.4024 17.4096 17.3329 17.7253C17.3329 17.7253 14.5727 30.5904 14.5491 30.7309C14.4823 31.0472 14.5432 31.377 14.7185 31.6486C14.8937 31.9203 15.1692 32.1117 15.4849 32.1812C15.8012 32.2479 16.131 32.187 16.4026 32.0118C16.6743 31.8365 16.8657 31.5611 16.9352 31.2454C16.9575 31.1049 17.3329 29.3974 17.3329 29.3974C17.4657 28.7713 17.7887 28.2016 18.2576 27.766C18.7265 27.3305 19.3185 27.0504 19.9526 26.964C20.4114 26.9138 20.8714 26.8748 21.3321 26.8472C23.5528 26.6741 25.6266 25.6701 27.1398 24.0356C28.653 22.401 29.4943 20.256 29.4958 18.0285C29.4958 13.1408 25.5189 9.1875 20.6535 9.1875ZM21.2848 29.5378C21.0944 29.4967 20.8977 29.4939 20.7061 29.5294C20.5145 29.5648 20.3319 29.638 20.1688 29.7446C20.0057 29.8511 19.8654 29.989 19.756 30.1502C19.6465 30.3114 19.5702 30.4927 19.5313 30.6836C19.3672 31.479 19.8594 32.2744 20.6771 32.4384C20.8678 32.4797 21.0647 32.4827 21.2565 32.4472C21.4483 32.4117 21.6311 32.3385 21.7944 32.2318C21.9576 32.125 22.098 31.9869 22.2075 31.8255C22.3169 31.6641 22.3932 31.4825 22.4319 31.2913C22.5947 30.4736 22.1038 29.7006 21.2848 29.5378Z" fill="white"/>
</g>
<defs>
<clipPath id="clip0_0_178">
<rect width="42" height="42" fill="white"/>
</clipPath>
</defs>
</svg>
