<svg width="33" height="32" viewBox="0 0 33 32" fill="none" xmlns="http://www.w3.org/2000/svg">
<path d="M24.75 0H8.25C3.3 0 0 3.34158 0 8.35395V18.3787C0 23.3911 3.3 26.7327 8.25 26.7327V30.2914C8.25 31.6281 9.7185 32.43 10.8075 31.6782L18.15 26.7327H24.75C29.7 26.7327 33 23.3911 33 18.3787V8.35395C33 3.34158 29.7 0 24.75 0ZM16.5 20.3335C15.807 20.3335 15.2625 19.7655 15.2625 19.0804C15.2625 18.3954 15.807 17.8273 16.5 17.8273C17.193 17.8273 17.7375 18.3954 17.7375 19.0804C17.7375 19.7655 17.193 20.3335 16.5 20.3335ZM18.579 13.3998C17.9355 13.8342 17.7375 14.1182 17.7375 14.586V14.9369C17.7375 15.6219 17.1765 16.19 16.5 16.19C15.8235 16.19 15.2625 15.6219 15.2625 14.9369V14.586C15.2625 12.6479 16.665 11.6955 17.193 11.328C17.8035 10.9103 18.0015 10.6262 18.0015 10.1918C18.0015 9.35642 17.325 8.6714 16.5 8.6714C15.675 8.6714 14.9985 9.35642 14.9985 10.1918C14.9985 10.8768 14.4375 11.4449 13.761 11.4449C13.0845 11.4449 12.5235 10.8768 12.5235 10.1918C12.5235 7.96967 14.3055 6.16521 16.5 6.16521C18.6945 6.16521 20.4765 7.96967 20.4765 10.1918C20.4765 12.0965 19.0905 13.0489 18.579 13.3998Z" fill="#A4A4A4"/>
</svg>
