<svg width="13" height="13" viewBox="0 0 13 13" fill="none" xmlns="http://www.w3.org/2000/svg">
<path d="M2.61763 3.32373H1.91176C1.53733 3.32373 1.17825 3.47247 0.913494 3.73722C0.648738 4.00198 0.5 4.36107 0.5 4.73549V11.0884C0.5 11.4628 0.648738 11.8219 0.913494 12.0866C1.17825 12.3514 1.53733 12.5001 1.91176 12.5001H8.26466C8.63908 12.5001 8.99816 12.3514 9.26292 12.0866C9.52767 11.8219 9.67641 11.4628 9.67641 11.0884V10.3825" stroke="#A4A4A4" stroke-linecap="round" stroke-linejoin="round"/>
<path d="M8.97044 1.91183L11.0881 4.02947M12.0657 3.03065C12.3437 2.75264 12.4999 2.37558 12.4999 1.98242C12.4999 1.58926 12.3437 1.2122 12.0657 0.934191C11.7877 0.656183 11.4107 0.5 11.0175 0.5C10.6243 0.5 10.2473 0.656183 9.96926 0.934191L4.0293 6.85298V8.97061H6.14693L12.0657 3.03065Z" stroke="#A4A4A4" stroke-linecap="round" stroke-linejoin="round"/>
</svg>
