<svg width="42" height="42" viewBox="0 0 42 42" fill="none" xmlns="http://www.w3.org/2000/svg">
<g clip-path="url(#clip0_0_80)">
<path d="M42 21C42 25.1534 40.7684 29.2135 38.4609 32.667C36.1534 36.1204 32.8736 38.812 29.0364 40.4015C25.1991 41.9909 20.9767 42.4068 16.9031 41.5965C12.8295 40.7862 9.08767 38.7861 6.15077 35.8492C3.21386 32.9123 1.21381 29.1705 0.403519 25.0969C-0.406771 21.0233 0.00909889 16.8009 1.59854 12.9636C3.18798 9.1264 5.8796 5.84665 9.33304 3.53914C12.7865 1.23163 16.8466 0 21 0C26.5696 0 31.911 2.21249 35.8493 6.15076C39.7875 10.089 42 15.4305 42 21Z" fill="#26A17B"/>
<path fill-rule="evenodd" clip-rule="evenodd" d="M23.1289 21.7402V21.7376C22.9845 21.7481 22.2403 21.7928 20.58 21.7928C19.2544 21.7928 18.3212 21.7534 17.9931 21.7376V21.7416C12.8901 21.5171 9.08119 20.6286 9.08119 19.5654C9.08119 18.5036 12.8901 17.6151 17.9931 17.3867V20.8569C18.3264 20.8806 19.2819 20.937 20.6023 20.937C22.1865 20.937 22.9806 20.8714 23.1289 20.8583V17.3893C28.2214 17.6164 32.0211 18.5049 32.0211 19.5654C32.0211 20.6286 28.2214 21.5145 23.1289 21.7402ZM23.1289 17.0284V13.923H30.2348V9.1875H10.8872V13.923H17.9931V17.0271C12.2181 17.2922 7.875 18.4367 7.875 19.8069C7.875 21.1772 12.2181 22.3204 17.9931 22.5868V32.5382H23.1289V22.5842C28.8947 22.3191 33.2272 21.1759 33.2272 19.8069C33.2272 18.438 28.8947 17.2948 23.1289 17.0284Z" fill="white"/>
</g>
<defs>
<clipPath id="clip0_0_80">
<rect width="42" height="42" fill="white"/>
</clipPath>
</defs>
</svg>
