<svg width="22" height="25" viewBox="0 0 22 25" fill="none" xmlns="http://www.w3.org/2000/svg">
<path fill-rule="evenodd" clip-rule="evenodd" d="M5.52752 1.75343C5.52752 1.20006 5.97611 0.751468 6.52948 0.751468H13.1693L20.811 7.98128V18.7278C20.811 19.2811 20.3624 19.7297 19.809 19.7297H6.52948C5.97611 19.7297 5.52752 19.2811 5.52752 18.7278V1.75343Z" stroke="#A4A4A4" stroke-width="1.5" stroke-linejoin="round"/>
<path d="M13.1693 0.751468V7.98128H20.811" stroke="#A4A4A4" stroke-width="1.5" stroke-linejoin="round"/>
<path fill-rule="evenodd" clip-rule="evenodd" d="M0.751468 6.27202C0.751468 5.71865 1.20006 5.27006 1.75342 5.27006H8.39322L16.035 12.4999V23.2463C16.035 23.7997 15.5864 24.2483 15.033 24.2483H1.75342C1.20006 24.2483 0.751468 23.7997 0.751468 23.2463V6.27202Z" stroke="#A4A4A4" stroke-width="1.5" stroke-linejoin="round"/>
<path d="M8.39322 5.27006V12.4999H16.035" stroke="#A4A4A4" stroke-width="1.5" stroke-linejoin="round"/>
</svg>
