<svg width="14" height="12" viewBox="0 0 14 12" fill="none" xmlns="http://www.w3.org/2000/svg">
<path d="M13.2789 8.87999C13.1109 10.7647 11.7599 12 9.79989 12H3.49996C1.56798 12 0 10.4188 0 8.47058V3.52941C0 1.60941 1.14799 0.268235 2.93297 0.0423529C3.11497 0.0141176 3.30396 0 3.49996 0H9.79989C9.98189 0 10.1569 0.00705878 10.3249 0.035294C11.9979 0.232941 13.1319 1.41176 13.2789 3.12C13.2999 3.3247 13.1319 3.49411 12.9289 3.49411H11.8439C11.1719 3.49411 10.5489 3.75529 10.1009 4.22117C9.56889 4.74352 9.3029 5.47764 9.3659 6.21176C9.47789 7.49646 10.5979 8.50587 11.9279 8.50587H12.9289C13.1319 8.50587 13.2999 8.67528 13.2789 8.87999Z" fill="#F9C809"/>
<path d="M14 5.27223V6.72634C14 7.11458 13.692 7.43222 13.3 7.44634H11.928C11.172 7.44634 10.479 6.8887 10.416 6.12634C10.374 5.68164 10.542 5.26517 10.836 4.97576C11.095 4.70752 11.452 4.55224 11.844 4.55224H13.3C13.692 4.56636 14 4.88399 14 5.27223Z" fill="#F9C809"/>
</svg>
