<svg width="42" height="42" viewBox="0 0 42 42" fill="none" xmlns="http://www.w3.org/2000/svg">
<g clip-path="url(#clip0_0_84)">
<path d="M42 21C42 25.1534 40.7684 29.2135 38.4609 32.667C36.1534 36.1204 32.8736 38.812 29.0364 40.4015C25.1991 41.9909 20.9767 42.4068 16.9031 41.5965C12.8295 40.7862 9.08767 38.7861 6.15077 35.8492C3.21386 32.9123 1.21381 29.1705 0.403519 25.0969C-0.406771 21.0233 0.00909889 16.8009 1.59854 12.9636C3.18798 9.1264 5.8796 5.84665 9.33304 3.53914C12.7865 1.23163 16.8466 0 21 0C26.5696 0 31.911 2.21249 35.8493 6.15076C39.7875 10.089 42 15.4305 42 21Z" fill="#C3A634"/>
<path fill-rule="evenodd" clip-rule="evenodd" d="M16.0755 19.1756H21.7376V22.176H16.0755V28.4996H19.6468C21.0604 28.4996 22.2167 28.3093 23.1171 27.9261C24.0174 27.5441 24.7236 27.0152 25.2368 26.3379C25.7616 25.6337 26.1189 24.8189 26.2815 23.9558C26.4711 22.9821 26.5635 21.992 26.5571 21C26.5635 20.008 26.4711 19.0179 26.2815 18.0443C26.1191 17.181 25.7618 16.3662 25.2368 15.6621C24.7236 14.9848 24.0161 14.4559 23.1171 14.0739C22.2167 13.6907 21.0604 13.5004 19.6468 13.5004H16.0755V19.1769V19.1756ZM12.4451 22.176H10.5V19.1769H12.4451V10.5H21.0407C22.6288 10.5 24.003 10.7756 25.1646 11.3229C26.3261 11.8729 27.2738 12.6223 28.0101 13.5739C28.7451 14.5241 29.2924 15.6371 29.6507 16.9116C30.009 18.186 30.1875 19.5497 30.1875 21C30.1965 22.381 30.0154 23.7568 29.6494 25.0884C29.2924 26.3616 28.7451 27.4759 28.0088 28.4261C27.2738 29.3777 26.3261 30.1271 25.1646 30.6771C24.003 31.2257 22.6275 31.5 21.0407 31.5H12.4451V22.176Z" fill="white"/>
</g>
<defs>
<clipPath id="clip0_0_84">
<rect width="42" height="42" fill="white"/>
</clipPath>
</defs>
</svg>
