<svg width="17" height="17" viewBox="0 0 17 17" fill="none" xmlns="http://www.w3.org/2000/svg">
<path d="M3.32351 4.26465H2.38234C1.88311 4.26465 1.40433 4.46297 1.05132 4.81597C0.698317 5.16898 0.5 5.64776 0.5 6.14699V14.6175C0.5 15.1168 0.698317 15.5955 1.05132 15.9485C1.40433 16.3015 1.88311 16.4999 2.38234 16.4999H10.8529C11.3521 16.4999 11.8309 16.3015 12.1839 15.9485C12.5369 15.5955 12.7352 15.1168 12.7352 14.6175V13.6764" stroke="#D9D9D9" stroke-linecap="round" stroke-linejoin="round"/>
<path d="M11.794 2.38244L14.6175 5.20595M15.921 3.8742C16.2917 3.50352 16.5 3.00077 16.5 2.47656C16.5 1.95234 16.2917 1.4496 15.921 1.07892C15.5504 0.708244 15.0476 0.5 14.5234 0.5C13.9992 0.5 13.4964 0.708244 13.1258 1.07892L5.20581 8.97064V11.7941H8.02932L15.921 3.8742Z" stroke="#D9D9D9" stroke-linecap="round" stroke-linejoin="round"/>
</svg>
