<svg width="19" height="19" viewBox="0 0 19 19" fill="none" xmlns="http://www.w3.org/2000/svg">
<path d="M18.0465 2.29252L18.7207 1.62777C18.8995 1.44895 19 1.20642 19 0.953525C19 0.700634 18.8995 0.458102 18.7207 0.279281C18.5419 0.100461 18.2994 3.54593e-07 18.0465 3.49693e-07C17.7936 3.44793e-07 17.5511 0.100461 17.3722 0.279281L16.0427 1.61827L13.3553 4.30575L7.36304 10.2885C6.38115 9.64067 5.19375 9.3804 4.03092 9.5581C2.86808 9.7358 1.81261 10.3388 1.06901 11.2503C0.325411 12.1618 -0.0533674 13.3169 0.00606896 14.4917C0.0655053 15.6665 0.558924 16.7775 1.39072 17.6093C2.22251 18.4411 3.33346 18.9345 4.50829 18.9939C5.68312 19.0534 6.83819 18.6746 7.74968 17.931C8.66118 17.1874 9.2642 16.1319 9.4419 14.9691C9.61961 13.8063 9.35934 12.6189 8.71153 11.637L14.02 6.31898L16.0332 8.34171C16.1218 8.42964 16.2268 8.49925 16.3422 8.5466C16.4577 8.59394 16.5813 8.61808 16.7061 8.61764C16.8309 8.6172 16.9543 8.59218 17.0695 8.54403C17.1846 8.49587 17.2891 8.42551 17.377 8.33697C17.4649 8.24842 17.5345 8.14343 17.5819 8.02798C17.6292 7.91253 17.6533 7.78889 17.6529 7.66411C17.6525 7.53934 17.6275 7.41587 17.5793 7.30076C17.5311 7.18565 17.4608 7.08115 17.3722 6.99323L15.359 4.97999L16.7075 3.641L17.3722 4.30575C17.4602 4.39429 17.5647 4.46465 17.6798 4.51281C17.7949 4.56097 17.9183 4.58598 18.0431 4.58642C18.1679 4.58686 18.2915 4.56272 18.407 4.51538C18.5224 4.46804 18.6274 4.39842 18.716 4.3105C18.8045 4.22258 18.8749 4.11808 18.923 4.00297C18.9712 3.88786 18.9962 3.76439 18.9966 3.63961C18.9971 3.51483 18.9729 3.39119 18.9256 3.27574C18.8783 3.1603 18.8086 3.0553 18.7207 2.96676L18.0465 2.29252ZM4.75153 17.0974C4.18807 17.0974 3.63726 16.9303 3.16876 16.6173C2.70026 16.3042 2.3351 15.8593 2.11948 15.3387C1.90385 14.8181 1.84743 14.2453 1.95736 13.6927C2.06728 13.14 2.33862 12.6324 2.73704 12.234C3.13547 11.8356 3.6431 11.5642 4.19574 11.4543C4.74837 11.3444 5.32119 11.4008 5.84177 11.6164C6.36234 11.832 6.80728 12.1972 7.12032 12.6657C7.43336 13.1342 7.60045 13.685 7.60045 14.2485C7.60045 15.004 7.3003 15.7287 6.76602 16.263C6.23175 16.7972 5.50711 17.0974 4.75153 17.0974Z" fill="#A4A4A4"/>
</svg>
