<svg width="33" height="33" viewBox="0 0 33 33" fill="none" xmlns="http://www.w3.org/2000/svg">
<g filter="url(#filter0_d_28_1517)">
<path d="M17.1932 17.4422H15.0912C13.6042 17.4422 12.3855 16.1399 12.3855 14.5352C12.3855 14.0585 12.7656 13.6631 13.224 13.6631C13.6825 13.6631 14.0626 14.0585 14.0626 14.5352C14.0626 15.1747 14.521 15.698 15.0912 15.698H17.1932C17.6292 15.698 17.9758 15.291 17.9758 14.791C17.9758 14.1631 17.8081 14.0701 17.428 13.9306L14.0626 12.7096C13.347 12.4538 12.3855 11.9073 12.3855 10.198C12.3855 8.74455 13.4924 7.54688 14.8452 7.54688H16.9472C18.4342 7.54688 19.6529 8.8492 19.6529 10.4538C19.6529 10.9306 19.2728 11.3259 18.8144 11.3259C18.356 11.3259 17.9758 10.9306 17.9758 10.4538C17.9758 9.81432 17.5174 9.29106 16.9472 9.29106H14.8452C14.4092 9.29106 14.0626 9.69804 14.0626 10.198C14.0626 10.8259 14.2303 10.9189 14.6105 11.0585L17.9758 12.2794C18.6914 12.5352 19.6529 13.0817 19.6529 14.791C19.6529 16.2561 18.5461 17.4422 17.1932 17.4422Z" fill="#F9C809"/>
<path d="M16.0192 18.6048C15.5608 18.6048 15.1807 18.2095 15.1807 17.7327V7.2676C15.1807 6.79086 15.5608 6.39551 16.0192 6.39551C16.4776 6.39551 16.8578 6.79086 16.8578 7.2676V17.7327C16.8578 18.2095 16.4776 18.6048 16.0192 18.6048Z" fill="#F9C809"/>
<path d="M16.0192 25C9.38909 25 4 19.3953 4 12.5C4 5.60465 9.38909 0 16.0192 0C16.4776 0 16.8578 0.395349 16.8578 0.872093C16.8578 1.34884 16.4776 1.74419 16.0192 1.74419C10.3171 1.74419 5.6771 6.56977 5.6771 12.5C5.6771 18.4302 10.3171 23.2558 16.0192 23.2558C21.7214 23.2558 26.3614 18.4302 26.3614 12.5C26.3614 12.0233 26.7415 11.6279 27.1999 11.6279C27.6583 11.6279 28.0385 12.0233 28.0385 12.5C28.0385 19.3953 22.6494 25 16.0192 25Z" fill="#F9C809"/>
<path d="M26.0818 7.55795H21.6096C21.1512 7.55795 20.771 7.1626 20.771 6.68585V2.03469C20.771 1.55795 21.1512 1.1626 21.6096 1.1626C22.068 1.1626 22.4481 1.55795 22.4481 2.03469V5.81376H26.0818C26.5403 5.81376 26.9204 6.20911 26.9204 6.68585C26.9204 7.1626 26.5403 7.55795 26.0818 7.55795Z" fill="#F9C809"/>
<path d="M21.609 7.55816C21.3965 7.55816 21.1841 7.47677 21.0164 7.30235C20.6921 6.96514 20.6921 6.407 21.0164 6.06979L26.6067 0.255837C26.931 -0.0813726 27.4676 -0.0813726 27.7919 0.255837C28.1161 0.593046 28.1161 1.15119 27.7919 1.48839L22.2015 7.30235C22.0338 7.47677 21.8214 7.55816 21.609 7.55816Z" fill="#F9C809"/>
</g>
<defs>
<filter id="filter0_d_28_1517" x="0" y="0" width="32.0385" height="33" filterUnits="userSpaceOnUse" color-interpolation-filters="sRGB">
<feFlood flood-opacity="0" result="BackgroundImageFix"/>
<feColorMatrix in="SourceAlpha" type="matrix" values="0 0 0 0 0 0 0 0 0 0 0 0 0 0 0 0 0 0 127 0" result="hardAlpha"/>
<feOffset dy="4"/>
<feGaussianBlur stdDeviation="2"/>
<feComposite in2="hardAlpha" operator="out"/>
<feColorMatrix type="matrix" values="0 0 0 0 0 0 0 0 0 0 0 0 0 0 0 0 0 0 0.25 0"/>
<feBlend mode="normal" in2="BackgroundImageFix" result="effect1_dropShadow_28_1517"/>
<feBlend mode="normal" in="SourceGraphic" in2="effect1_dropShadow_28_1517" result="shape"/>
</filter>
</defs>
</svg>
