<svg width="65" height="60" viewBox="0 0 65 60" fill="none" xmlns="http://www.w3.org/2000/svg">
<path fill-rule="evenodd" clip-rule="evenodd" d="M42.3383 0C48.8638 0 52.1257 0 55.6384 1.025C59.4734 2.3135 62.4937 5.1015 63.8896 8.6415C65 11.8835 65 14.8955 65 20.9185V39.0815C65 45.105 65 48.116 63.8896 51.3585C62.4937 54.8985 59.4734 57.6865 55.6384 58.9745C52.1257 60 48.8638 60 42.3383 60H22.6617C16.1363 60 12.8738 60 9.36163 58.9745C5.52663 57.6865 2.50629 54.8985 1.11042 51.3585C0 48.116 0 45.105 0 39.0815V20.9185C0 14.8955 0 11.8835 1.11042 8.6415C2.50629 5.1015 5.52663 2.3135 9.36163 1.025C12.8738 0 16.1363 0 22.6617 0H42.3383Z" fill="#25D366"/>
<path d="M46.8945 16.6356C43.0747 13.1059 37.9961 11.1615 32.5848 11.1592C21.4363 11.1592 12.3607 19.5348 12.3571 29.83C12.3551 33.1215 13.2869 36.3339 15.0566 39.1642L12.1875 48.8401L22.91 46.2442C25.8649 47.7306 29.1911 48.5148 32.5767 48.5162H32.5853C43.7338 48.5162 52.8079 40.1392 52.8125 29.8445C52.815 24.8561 50.7122 20.1648 46.8945 16.6356ZM32.5853 45.3625H32.5787C29.5608 45.3615 26.6023 44.6134 24.0205 43.1996L23.4066 42.8631L17.0437 44.4039L18.7413 38.6776L18.3417 38.0889C16.6583 35.6186 15.7691 32.7634 15.7711 29.83C15.7742 21.2739 23.3167 14.3125 32.5904 14.3125C37.0815 14.3134 41.3019 15.9301 44.4768 18.864C47.6511 21.7975 49.398 25.6961 49.397 29.8431C49.3939 38.4006 41.8514 45.3625 32.5853 45.3625ZM41.8072 33.7398C41.3014 33.5059 38.8167 32.3786 38.3531 32.2215C37.8894 32.0659 37.5538 31.9886 37.2166 32.4554C36.8794 32.9223 35.911 33.9737 35.6154 34.285C35.3209 34.5962 35.0264 34.6356 34.5206 34.4017C34.0148 34.1678 32.3868 33.6756 30.4576 32.0856C28.9545 30.8495 27.9398 29.3204 27.6453 28.8536C27.3508 28.3867 27.6138 28.135 27.8672 27.902C28.0947 27.6929 28.373 27.3573 28.6254 27.0845C28.8778 26.8117 28.9621 26.6171 29.1307 26.3064C29.2993 25.9951 29.2155 25.7228 29.0885 25.4893C28.9616 25.2554 27.951 22.959 27.5306 22.0248C27.1197 21.115 26.7033 21.2382 26.3936 21.2242C26.098 21.2111 25.7613 21.2073 25.4247 21.2073C25.088 21.2073 24.54 21.324 24.0769 21.7914C23.6143 22.2582 22.3082 23.3865 22.3082 25.6839C22.3082 27.9798 24.1191 30.1989 24.372 30.5096C24.6248 30.8204 27.9358 35.5337 33.0058 37.5545C34.2113 38.0345 35.1533 38.3218 35.8871 38.5375C37.0977 38.8932 38.1997 38.8421 39.0711 38.7221C40.042 38.5886 42.0611 37.5939 42.4831 36.504C42.9041 35.4146 42.9041 34.4809 42.7766 34.2859C42.6491 34.0904 42.312 33.9737 41.8072 33.7398Z" fill="white"/>
</svg>
