<svg width="18" height="17" viewBox="0 0 18 17" fill="none" xmlns="http://www.w3.org/2000/svg">
<path d="M17.5781 15.9654C16.285 13.7297 14.2921 12.1266 11.9664 11.3667C13.1168 10.6819 14.0106 9.63833 14.5105 8.39636C15.0104 7.15439 15.0888 5.78266 14.7337 4.49182C14.3786 3.20097 13.6095 2.0624 12.5446 1.25094C11.4798 0.439475 10.178 1.97222e-07 8.83918 1.7128e-07C7.50038 1.45337e-07 6.19859 0.439475 5.13372 1.25094C4.06886 2.0624 3.29981 3.20097 2.94467 4.49182C2.58952 5.78266 2.66793 7.15439 3.16785 8.39636C3.66777 9.63833 4.56155 10.6819 5.71194 11.3667C3.38625 12.1258 1.39341 13.7289 0.100225 15.9654C0.0528013 16.0428 0.0213458 16.1288 0.00771393 16.2185C-0.00591792 16.3082 -0.00144996 16.3997 0.0208542 16.4876C0.0431583 16.5755 0.0828469 16.6581 0.137578 16.7304C0.192309 16.8028 0.260975 16.8634 0.339523 16.9088C0.418071 16.9541 0.50491 16.9833 0.594918 16.9946C0.684926 17.0058 0.776278 16.999 0.863585 16.9744C0.950893 16.9497 1.03239 16.9079 1.10326 16.8513C1.17413 16.7947 1.23294 16.7244 1.27623 16.6447C2.87594 13.88 5.70345 12.2294 8.83918 12.2294C11.9749 12.2294 14.8024 13.88 16.4021 16.6447C16.4454 16.7244 16.5042 16.7947 16.5751 16.8513C16.646 16.9079 16.7275 16.9497 16.8148 16.9744C16.9021 16.999 16.9934 17.0058 17.0834 16.9946C17.1735 16.9833 17.2603 16.9541 17.3388 16.9088C17.4174 16.8634 17.4861 16.8028 17.5408 16.7304C17.5955 16.6581 17.6352 16.5755 17.6575 16.4876C17.6798 16.3997 17.6843 16.3082 17.6706 16.2185C17.657 16.1288 17.6256 16.0428 17.5781 15.9654ZM4.08421 6.11584C4.08421 5.1754 4.36309 4.25608 4.88557 3.47412C5.40805 2.69217 6.15068 2.08272 7.01953 1.72282C7.88839 1.36293 8.84446 1.26877 9.76683 1.45224C10.6892 1.63571 11.5365 2.08858 12.2015 2.75357C12.8664 3.41857 13.3193 4.26582 13.5028 5.1882C13.6863 6.11057 13.5921 7.06664 13.2322 7.93549C12.8723 8.80435 12.2629 9.54698 11.4809 10.0695C10.699 10.5919 9.77963 10.8708 8.83918 10.8708C7.5785 10.8695 6.36984 10.3681 5.4784 9.47663C4.58696 8.58519 4.08556 7.37653 4.08421 6.11584Z" fill="#A4A4A4"/>
</svg>
