<svg width="342" height="111" viewBox="0 0 342 111" fill="none" xmlns="http://www.w3.org/2000/svg">
<line y1="-0.242565" x2="35.1534" y2="-0.242565" transform="matrix(-5.53096e-08 1 1 3.45453e-08 23.426 62.8467)" stroke="#43464D" stroke-opacity="0.1" stroke-width="0.48513"/>
<rect width="14.1269" height="23.9682" transform="matrix(1 0 0 -1 16 92.4075)" fill="#FF6058" fill-opacity="0.1"/>
<line y1="-0.242565" x2="51.1322" y2="-0.242565" transform="matrix(7.61027e-08 1 1 -2.51067e-08 43.963 45.27)" stroke="#43464D" stroke-opacity="0.1" stroke-width="0.48513"/>
<rect width="14.1269" height="43.1428" transform="matrix(1 0 0 -1 36.4191 92.468)" fill="#00E291" fill-opacity="0.1"/>
<line y1="-0.242565" x2="28.7618" y2="-0.242565" transform="matrix(-5.53096e-08 1 1 3.45453e-08 63.6165 45.27)" stroke="#43464D" stroke-opacity="0.1" stroke-width="0.48513"/>
<rect width="14.1269" height="19.9735" transform="matrix(1 0 0 -1 55.9534 69.2383)" fill="#FF6058" fill-opacity="0.1"/>
<line x1="81.6355" y1="18.905" x2="81.6355" y2="74.8308" stroke="#43464D" stroke-opacity="0.1" stroke-width="0.48513"/>
<rect width="14.1269" height="43.9417" transform="matrix(1 0 0 -1 75.2738 69.2383)" fill="#00E291" fill-opacity="0.1"/>
<line y1="-0.242565" x2="35.1534" y2="-0.242565" transform="matrix(-5.53096e-08 1 1 3.45453e-08 254.411 45.5129)" stroke="#43464D" stroke-opacity="0.1" stroke-width="0.48513"/>
<rect width="14.1269" height="23.9682" transform="matrix(1 0 0 -1 246.985 75.0737)" fill="#FF6058" fill-opacity="0.1"/>
<line y1="-0.242565" x2="51.1322" y2="-0.242565" transform="matrix(7.61027e-08 1 1 -2.51067e-08 276.216 27.9363)" stroke="#43464D" stroke-opacity="0.1" stroke-width="0.48513"/>
<rect width="14.1269" height="43.1428" transform="matrix(1 0 0 -1 268.672 75.1343)" fill="#00E291" fill-opacity="0.1"/>
<line y1="-0.242565" x2="27.9629" y2="-0.242565" transform="matrix(-5.53096e-08 1 1 3.45453e-08 109.038 24.9841)" stroke="#43464D" stroke-opacity="0.1" stroke-width="0.48513"/>
<rect width="14.1269" height="21.5714" transform="matrix(1 0 0 -1 101.019 49.7512)" fill="#00E291" fill-opacity="0.1"/>
<line y1="-0.242565" x2="38.3491" y2="-0.242565" transform="matrix(5.57405e-08 1 1 -3.42782e-08 129.789 24.1851)" stroke="#43464D" stroke-opacity="0.1" stroke-width="0.48513"/>
<rect width="14.1269" height="30.3597" transform="matrix(1 0 0 -1 121.652 58.5396)" fill="#FF6058" fill-opacity="0.1"/>
<line y1="-0.242565" x2="28.7618" y2="-0.242565" transform="matrix(0 1 1 0 149.256 33.7725)" stroke="#43464D" stroke-opacity="0.1" stroke-width="0.48513"/>
<rect width="14.1269" height="20.7724" transform="matrix(1 0 0 -1 142.284 58.5396)" fill="#00E291" fill-opacity="0.1"/>
<line y1="-0.242565" x2="17.3831" y2="-0.242565" transform="matrix(0 1 1 0 296.454 29.6841)" stroke="#43464D" stroke-opacity="0.1" stroke-width="0.48513"/>
<rect width="14.1269" height="12.5545" transform="matrix(1 0 0 -1 289.482 44.6533)" fill="#FF6058" fill-opacity="0.1"/>
<line y1="-0.242565" x2="22.3703" y2="-0.242565" transform="matrix(8.31458e-08 -1 -1 -9.19198e-08 233.005 54.5449)" stroke="#43464D" stroke-opacity="0.1" stroke-width="0.48513"/>
<rect width="14.1269" height="14.3809" transform="matrix(-1 -9.19198e-08 -8.31458e-08 1 240.711 36.1692)" fill="#FF6058" fill-opacity="0.1"/>
<line x1="169.842" y1="13" x2="169.842" y2="40.9629" stroke="#43464D" stroke-opacity="0.1" stroke-width="0.48513"/>
<rect width="14.1269" height="19.9735" transform="matrix(1 0 0 -1 162.974 36.9683)" fill="#00E291" fill-opacity="0.1"/>
<line y1="-0.242565" x2="27.9629" y2="-0.242565" transform="matrix(1.71259e-07 -1 -1 -1.00411e-07 211.972 60.1375)" stroke="#43464D" stroke-opacity="0.1" stroke-width="0.48513"/>
<rect width="14.1269" height="19.9735" transform="matrix(-1 -9.19198e-08 -8.31458e-08 1 219.677 36.1692)" fill="#00E291" fill-opacity="0.1"/>
<line y1="-0.242565" x2="35.7824" y2="-0.242565" transform="matrix(1.33834e-07 -1 -1 -1.28489e-07 317.295 49.6909)" stroke="#43464D" stroke-opacity="0.1" stroke-width="0.48513"/>
<rect width="14.1269" height="25.5588" transform="matrix(-1 -1.17624e-07 -6.4976e-08 1 325 19.0186)" fill="#00E291" fill-opacity="0.1"/>
<line y1="-0.242565" x2="47.9364" y2="-0.242565" transform="matrix(5.53096e-08 1 1 -3.45453e-08 191.708 13)" stroke="#43464D" stroke-opacity="0.1" stroke-width="0.48513"/>
<rect width="14.1269" height="39.947" transform="matrix(1 0 0 -1 184.586 56.6907)" fill="#FF6058" fill-opacity="0.1"/>
<g filter="url(#filter0_b_0_181)">
<rect width="342" height="111" rx="16" fill="url(#paint0_linear_0_181)"/>
<rect x="0.5" y="0.5" width="341" height="110" rx="15.5" stroke="url(#paint1_linear_0_181)"/>
</g>
<line y1="87.5" x2="342" y2="87.5" stroke="url(#paint2_linear_0_181)" stroke-opacity="0.61"/>
<defs>
<filter id="filter0_b_0_181" x="-2" y="-2" width="346" height="115" filterUnits="userSpaceOnUse" color-interpolation-filters="sRGB">
<feFlood flood-opacity="0" result="BackgroundImageFix"/>
<feGaussianBlur in="BackgroundImageFix" stdDeviation="1"/>
<feComposite in2="SourceAlpha" operator="in" result="effect1_backgroundBlur_0_181"/>
<feBlend mode="normal" in="SourceGraphic" in2="effect1_backgroundBlur_0_181" result="shape"/>
</filter>
<linearGradient id="paint0_linear_0_181" x1="0" y1="0" x2="65.243" y2="200.885" gradientUnits="userSpaceOnUse">
<stop stop-color="white" stop-opacity="0.15"/>
<stop offset="1" stop-color="white" stop-opacity="0.02"/>
</linearGradient>
<linearGradient id="paint1_linear_0_181" x1="0" y1="0" x2="342" y2="111" gradientUnits="userSpaceOnUse">
<stop stop-color="white" stop-opacity="0.15"/>
<stop offset="1" stop-color="white" stop-opacity="0.02"/>
</linearGradient>
<linearGradient id="paint2_linear_0_181" x1="1.85789e-05" y1="86.9961" x2="342" y2="87.9989" gradientUnits="userSpaceOnUse">
<stop stop-color="white" stop-opacity="0.15"/>
<stop offset="1" stop-color="white" stop-opacity="0.02"/>
</linearGradient>
</defs>
</svg>
