<svg width="15" height="13" viewBox="0 0 15 13" fill="none" xmlns="http://www.w3.org/2000/svg">
<path d="M4.22592 0.000822161C7.79962 -0.000274054 11.3735 -0.000274054 14.9477 0.000822161C14.9488 1.15598 14.9488 2.31094 14.9477 3.46571C11.3739 3.4668 7.79997 3.4668 4.22592 3.46571C4.22477 2.31055 4.22477 1.15558 4.22592 0.000822161Z" fill="#02A6C2"/>
<path d="M0.00448449 4.76935C1.15745 4.76337 2.31061 4.76337 3.46397 4.76935C3.46995 5.92231 3.46995 7.07547 3.46397 8.22884C2.31066 8.23476 1.1575 8.23486 0.00448449 8.22913C-0.00149483 7.07597 -0.00149483 5.92271 0.00448449 4.76935Z" fill="#5FCADE"/>
<path d="M4.22811 4.77046C6.80755 4.76498 9.38681 4.76498 11.9659 4.77046C11.9714 5.92343 11.9714 7.0766 11.9659 8.22996C9.38651 8.23534 6.80725 8.23534 4.22811 8.22996C4.22272 7.07695 4.22272 5.92378 4.22811 4.77046Z" fill="#5FCADE"/>
<path d="M4.2316 9.53911C5.38262 9.52661 6.53343 9.52661 7.68404 9.53911C7.696 10.6894 7.69618 11.8402 7.68457 12.9916C6.53355 13.003 5.38277 13.0028 4.2322 12.991C4.22024 11.8408 4.22004 10.6902 4.2316 9.53911Z" fill="#ABEBF4"/>
</svg>
