<svg width="14" height="15" viewBox="0 0 14 15" fill="none" xmlns="http://www.w3.org/2000/svg">
<path d="M8.20899 12.4321C8.20899 12.8579 7.9297 13.4164 7.5737 13.6327L6.58953 14.268C5.6751 14.8334 4.40463 14.1982 4.40463 13.0673V9.33281C4.40463 8.8372 4.12542 8.20198 3.83922 7.85296L1.15872 5.03287C0.802714 4.67686 0.523518 4.04863 0.523518 3.62283V2.00336C0.523518 1.15873 1.15875 0.523518 1.93358 0.523518H11.2454C12.0202 0.523518 12.6555 1.15873 12.6555 1.93356V3.48321C12.6555 4.04863 12.2995 4.75366 11.9505 5.10268" stroke="#D9D9D9" stroke-width="1.03567" stroke-miterlimit="10" stroke-linecap="round" stroke-linejoin="round"/>
<path d="M9.43063 10.6521C10.6643 10.6521 11.6644 9.65199 11.6644 8.41834C11.6644 7.18469 10.6643 6.1846 9.43063 6.1846C8.19698 6.1846 7.1969 7.18469 7.1969 8.41834C7.1969 9.65199 8.19698 10.6521 9.43063 10.6521Z" stroke="#D9D9D9" stroke-width="1.03567" stroke-linecap="round" stroke-linejoin="round"/>
<path d="M12.0831 11.0709L11.385 10.3729" stroke="#D9D9D9" stroke-width="1.03567" stroke-linecap="round" stroke-linejoin="round"/>
</svg>
