<svg width="19" height="14" viewBox="0 0 19 14" fill="none" xmlns="http://www.w3.org/2000/svg">
<path fill-rule="evenodd" clip-rule="evenodd" d="M0 1.90909C0 1.40277 0.200178 0.917184 0.556497 0.55916C0.912816 0.201136 1.39609 0 1.9 0H17.1C17.6039 0 18.0872 0.201136 18.4435 0.55916C18.7998 0.917184 19 1.40277 19 1.90909V12.0909C19 12.5972 18.7998 13.0828 18.4435 13.4408C18.0872 13.7989 17.6039 14 17.1 14H1.9C1.39609 14 0.912816 13.7989 0.556497 13.4408C0.200178 13.0828 0 12.5972 0 12.0909L0 1.90909ZM3.8 5.09091C3.8 4.41581 4.0669 3.76837 4.542 3.291C5.01709 2.81364 5.66145 2.54545 6.33333 2.54545C7.00522 2.54545 7.64958 2.81364 8.12467 3.291C8.59976 3.76837 8.86667 4.41581 8.86667 5.09091C8.86667 5.76601 8.59976 6.41345 8.12467 6.89082C7.64958 7.36818 7.00522 7.63636 6.33333 7.63636C5.66145 7.63636 5.01709 7.36818 4.542 6.89082C4.0669 6.41345 3.8 5.76601 3.8 5.09091ZM15.2 5.09091H11.4V3.81818H15.2V5.09091ZM15.2 8.90909H11.4V7.63636H15.2V8.90909ZM6.33333 8.90909C5.6448 8.90909 4.96986 9.10174 4.38416 9.46545C3.79846 9.82916 3.32512 10.3496 3.0172 10.9684L2.5992 11.8058C2.55077 11.9029 2.52788 12.0109 2.53272 12.1194C2.53756 12.2279 2.56997 12.3334 2.62686 12.4258C2.68374 12.5181 2.76321 12.5943 2.8577 12.6471C2.95219 12.6999 3.05856 12.7275 3.16667 12.7273H9.5C9.608 12.7273 9.71421 12.6995 9.80853 12.6466C9.90284 12.5938 9.98214 12.5176 10.0389 12.4252C10.0956 12.3329 10.1279 12.2275 10.1327 12.1191C10.1375 12.0107 10.1146 11.9028 10.0662 11.8058L9.64947 10.9684C9.34154 10.3496 8.86821 9.82916 8.28251 9.46545C7.6968 9.10174 7.02187 8.90909 6.33333 8.90909Z" fill="#A4A4A4"/>
</svg>
