<svg width="16" height="12" viewBox="0 0 16 12" fill="none" xmlns="http://www.w3.org/2000/svg">
<path d="M14.1664 0H1.83335C0.82201 0 0 0.82201 0 1.83335V10.1665C0 11.1778 0.82201 11.9998 1.83335 11.9998H14.1664C15.1778 11.9998 15.9998 11.1778 15.9998 10.1665V1.83335C15.9998 0.82201 15.1778 0 14.1664 0V0ZM4.99993 2.66659C5.91862 2.66659 6.66653 3.41463 6.66653 4.33331C6.66653 5.25188 5.91862 5.99992 4.99993 5.99992C4.08124 5.99992 3.33333 5.25188 3.33333 4.33331C3.33333 3.41463 4.08124 2.66659 4.99993 2.66659ZM7.99989 8.83325C7.99989 9.10925 7.77589 9.33324 7.4999 9.33324H2.49997C2.22397 9.33324 1.99997 9.10925 1.99997 8.83325V8.49988C1.99997 7.48854 2.82198 6.66653 3.83332 6.66653H6.16654C7.17788 6.66653 7.99989 7.48854 7.99989 8.49988V8.83325ZM13.4998 9.33324H9.83324C9.55724 9.33324 9.33324 9.10925 9.33324 8.83325C9.33324 8.55725 9.55724 8.33326 9.83324 8.33326H13.4998C13.7758 8.33326 13.9998 8.55725 13.9998 8.83325C13.9998 9.10925 13.7758 9.33324 13.4998 9.33324ZM13.4998 6.66653H9.83324C9.55724 6.66653 9.33324 6.44254 9.33324 6.16654C9.33324 5.89054 9.55724 5.66655 9.83324 5.66655H13.4998C13.7758 5.66655 13.9998 5.89054 13.9998 6.16654C13.9998 6.44254 13.7758 6.66653 13.4998 6.66653ZM13.4998 3.99994H9.83324C9.55724 3.99994 9.33324 3.77595 9.33324 3.49995C9.33324 3.22395 9.55724 2.99996 9.83324 2.99996H13.4998C13.7758 2.99996 13.9998 3.22395 13.9998 3.49995C13.9998 3.77595 13.7758 3.99994 13.4998 3.99994Z" fill="#A4A4A4"/>
</svg>
