<svg width="24" height="24" viewBox="0 0 24 24" fill="none" xmlns="http://www.w3.org/2000/svg">
<path d="M20.6543 15.9345C19.8783 15.1359 18.4257 13.9346 18.4257 10C18.4271 8.58801 17.9144 7.21969 16.9757 6.13048C16.0371 5.04127 14.7313 4.29927 13.2829 4.03214V3.23077C13.2829 3.06914 13.2496 2.9091 13.185 2.75977C13.1204 2.61045 13.0257 2.47477 12.9063 2.36048C12.7869 2.2462 12.6452 2.15554 12.4892 2.09369C12.3332 2.03183 12.166 2 11.9972 2C11.8283 2 11.6611 2.03183 11.5051 2.09369C11.3492 2.15554 11.2074 2.2462 11.088 2.36048C10.9686 2.47477 10.8739 2.61045 10.8093 2.75977C10.7447 2.9091 10.7115 3.06914 10.7115 3.23077V4.03214C9.26307 4.29927 7.95723 5.04127 7.01859 6.13048C6.07996 7.21969 5.56723 8.58801 5.56862 10C5.56862 13.9346 4.11605 15.1359 3.34006 15.9345C3.11872 16.1605 2.99693 16.4595 3.00006 16.7692C3.00021 16.9311 3.0337 17.0914 3.09862 17.2409C3.16353 17.3904 3.2586 17.5262 3.37838 17.6405C3.49817 17.7549 3.64031 17.8454 3.7967 17.9071C3.95308 17.9688 4.12063 18.0004 4.28977 18H19.7103C19.8794 18.0004 20.047 17.9688 20.2033 17.9071C20.3597 17.8454 20.5019 17.7549 20.6217 17.6405C20.7414 17.5262 20.8365 17.3904 20.9014 17.2409C20.9663 17.0914 20.9998 16.9311 21 16.7692C21.0016 16.4587 20.8777 16.1596 20.6543 15.9345Z" stroke="white" stroke-width="1.5"/>
<path d="M15 20C15 20.7956 14.6839 21.5587 14.1213 22.1213C13.5587 22.6839 12.7956 23 12 23C11.2044 23 10.4413 22.6839 9.87868 22.1213C9.31607 21.5587 9 20.7956 9 20L12 20H15Z" fill="white"/>
</svg>
