<svg width="18" height="18" viewBox="0 0 18 18" fill="none" xmlns="http://www.w3.org/2000/svg">
<g opacity="0.5">
<path fill-rule="evenodd" clip-rule="evenodd" d="M8.25 7.5C8.25 7.08579 8.58579 6.75 9 6.75C9.41421 6.75 9.75 7.08579 9.75 7.5V7.59099C9.75 7.81403 9.6614 8.02794 9.50368 8.18566L8.46967 9.21967C8.17678 9.51256 8.17678 9.98744 8.46967 10.2803C8.76256 10.5732 9.23744 10.5732 9.53033 10.2803L10.5643 9.24632C11.0034 8.8073 11.25 8.21186 11.25 7.59099V7.5C11.25 6.25736 10.2426 5.25 9 5.25C7.75736 5.25 6.75 6.25736 6.75 7.5V7.875C6.75 8.28921 7.08579 8.625 7.5 8.625C7.91421 8.625 8.25 8.28921 8.25 7.875V7.5ZM9 12.75C9.41421 12.75 9.75 12.4142 9.75 12C9.75 11.5858 9.41421 11.25 9 11.25C8.58579 11.25 8.25 11.5858 8.25 12C8.25 12.4142 8.58579 12.75 9 12.75Z" fill="white"/>
</g>
</svg>
