<svg width="28" height="34" viewBox="0 0 28 34" fill="none" xmlns="http://www.w3.org/2000/svg">
<path d="M20.5474 0H16.9367C12.4929 0 9.71554 3.39998 9.71554 8.83994V15.7249H18.3949C18.9642 15.7249 19.4364 16.3029 19.4364 16.9999C19.4364 17.6969 18.9642 18.2749 18.3949 18.2749H9.71554V25.1598C9.71554 30.5998 12.4929 33.9998 16.9367 33.9998H20.5335C24.9773 33.9998 27.7547 30.5998 27.7547 25.1598V8.83994C27.7686 3.39998 24.9912 0 20.5474 0Z" fill="#A4A4A4"/>
<path d="M3.55158 15.7247L6.42618 12.2058C6.63448 11.9508 6.73169 11.6278 6.73169 11.3048C6.73169 10.9818 6.63448 10.6418 6.42618 10.4038C6.02346 9.91079 5.35689 9.91079 4.95416 10.4038L0.302041 16.0987C-0.10068 16.5917 -0.10068 17.4077 0.302041 17.9007L4.95416 23.5956C5.35689 24.0886 6.02346 24.0886 6.42618 23.5956C6.8289 23.1026 6.8289 22.2866 6.42618 21.7936L3.55158 18.2747H9.71738V15.7247H3.55158Z" fill="#A4A4A4"/>
</svg>
