<svg width="42" height="42" viewBox="0 0 42 42" fill="none" xmlns="http://www.w3.org/2000/svg">
<g clip-path="url(#clip0_0_169)">
<path d="M42 21C42 25.1534 40.7684 29.2135 38.4609 32.667C36.1534 36.1204 32.8736 38.812 29.0364 40.4015C25.1991 41.9909 20.9767 42.4068 16.9031 41.5965C12.8295 40.7862 9.08767 38.7861 6.15077 35.8492C3.21386 32.9123 1.21381 29.1705 0.403519 25.0969C-0.406771 21.0233 0.00909889 16.8009 1.59854 12.9636C3.18798 9.1264 5.8796 5.84665 9.33304 3.53914C12.7865 1.23163 16.8466 0 21 0C26.5696 0 31.911 2.21249 35.8493 6.15076C39.7875 10.089 42 15.4305 42 21Z" fill="#F7931A"/>
<path fill-rule="evenodd" clip-rule="evenodd" d="M14.9253 9.58942L19.7515 10.8819L20.8301 6.86133L23.2432 7.51615L22.2065 11.3706L24.1748 11.8994L25.2134 8.00296L27.6685 8.65969L26.6108 12.5771C26.6108 12.5771 30.6199 13.4649 31.563 16.7256C32.5061 19.9863 29.4897 21.6988 28.5581 21.7637C28.5581 21.7637 32.0708 23.69 30.8643 27.4795C29.6577 31.2691 25.9541 31.9468 22.0576 31.0781L21 35.1407L18.5449 34.484L19.6235 30.4844L17.6763 29.9537L16.5976 33.9819L14.1616 33.3271L15.2422 29.318L10.2881 27.9816L11.5366 25.2096C11.5366 25.2096 12.9341 25.5914 13.4629 25.7174C13.9917 25.8434 14.3315 25.2936 14.4805 24.7438C14.6294 24.194 16.8725 15.0819 17.0845 14.3316C17.2964 13.5813 17.2105 12.9952 16.3208 12.7642C15.4312 12.5332 14.2208 12.1724 14.2208 12.1724L14.9253 9.58942ZM19.7935 21.6568L18.4571 26.9698C18.4571 26.9698 25.0835 29.3619 25.9312 25.9961C26.7788 22.6304 19.7935 21.6568 19.7935 21.6568ZM20.4082 19.1368L21.7197 14.2686C21.7197 14.2686 27.3935 15.2842 26.6948 17.9932C25.9961 20.7022 22.6514 19.6637 20.4082 19.1368Z" fill="white"/>
</g>
<defs>
<clipPath id="clip0_0_169">
<rect width="42" height="42" fill="white"/>
</clipPath>
</defs>
</svg>
