<svg width="28" height="25" viewBox="0 0 28 25" fill="none" xmlns="http://www.w3.org/2000/svg">
<path d="M26.5577 17.8337C26.2217 21.6188 23.5197 24.0996 19.5998 24.0996H6.99992C3.13597 24.0996 0 20.9241 0 17.0115V7.08812C0 3.23218 2.29598 0.538697 5.86594 0.0850574C6.22993 0.0283524 6.60793 0 6.99992 0H19.5998C19.9638 0 20.3138 0.0141762 20.6498 0.0708812C23.9957 0.467816 26.2637 2.83525 26.5577 6.2659C26.5997 6.67701 26.2637 7.01724 25.8577 7.01724H23.6877C22.3438 7.01724 21.0978 7.54176 20.2018 8.47739C19.1378 9.52644 18.6058 11.0008 18.7318 12.4751C18.9558 15.0552 21.1958 17.0824 23.8557 17.0824H25.8577C26.2637 17.0824 26.5997 17.4226 26.5577 17.8337Z" fill="#A4A4A4"/>
<path d="M28 10.5884V13.5087C28 14.2884 27.384 14.9263 26.6 14.9546H23.856C22.3441 14.9546 20.9581 13.8347 20.8321 12.3037C20.7481 11.4106 21.0841 10.5742 21.6721 9.99295C22.1901 9.45425 22.9041 9.1424 23.6881 9.1424H26.6C27.384 9.17076 28 9.80866 28 10.5884Z" fill="#A4A4A4"/>
</svg>
