<svg width="299" height="134" viewBox="0 0 299 134" fill="none" xmlns="http://www.w3.org/2000/svg">
<g filter="url(#filter0_b_0_3)">
<g filter="url(#filter1_b_0_3)">
<line y1="-0.242565" x2="55.1835" y2="-0.242565" transform="matrix(-5.35197e-08 1 1 3.57006e-08 7.18579 78.2488)" stroke="#43464D" stroke-opacity="0.1" stroke-width="0.48513"/>
<rect width="13.6697" height="37.6251" transform="matrix(1 0 0 -1 0 124.653)" fill="#FF6058" fill-opacity="0.1"/>
<line y1="-0.242565" x2="80.2669" y2="-0.242565" transform="matrix(7.36398e-08 1 1 -2.59464e-08 27.0581 50.657)" stroke="#43464D" stroke-opacity="0.1" stroke-width="0.48513"/>
<rect width="13.6697" height="67.7252" transform="matrix(1 0 0 -1 19.7583 124.748)" fill="#00E291" fill-opacity="0.1"/>
<line y1="-0.242565" x2="45.1501" y2="-0.242565" transform="matrix(-5.35197e-08 1 1 3.57006e-08 46.0754 50.657)" stroke="#43464D" stroke-opacity="0.1" stroke-width="0.48513"/>
<rect width="13.6697" height="31.3543" transform="matrix(1 0 0 -1 38.6604 88.282)" fill="#FF6058" fill-opacity="0.1"/>
<line x1="63.5194" y1="9.26953" x2="63.5194" y2="97.0615" stroke="#43464D" stroke-opacity="0.1" stroke-width="0.48513"/>
<rect width="13.6697" height="68.9794" transform="matrix(1 0 0 -1 57.3557 88.2822)" fill="#00E291" fill-opacity="0.1"/>
</g>
<g filter="url(#filter2_b_0_3)">
<line y1="-0.242565" x2="55.1835" y2="-0.242565" transform="matrix(-5.35197e-08 1 1 3.57006e-08 230.696 51.0386)" stroke="#43464D" stroke-opacity="0.1" stroke-width="0.48513"/>
<rect width="13.6697" height="37.6251" transform="matrix(1 0 0 -1 223.51 97.443)" fill="#FF6058" fill-opacity="0.1"/>
<line y1="-0.242565" x2="80.2669" y2="-0.242565" transform="matrix(7.36398e-08 1 1 -2.59464e-08 251.795 23.4468)" stroke="#43464D" stroke-opacity="0.1" stroke-width="0.48513"/>
<rect width="13.6697" height="67.7252" transform="matrix(1 0 0 -1 244.495 97.5379)" fill="#00E291" fill-opacity="0.1"/>
<line y1="-0.242565" x2="43.896" y2="-0.242565" transform="matrix(-5.35197e-08 1 1 3.57006e-08 90.0271 18.8126)" stroke="#43464D" stroke-opacity="0.1" stroke-width="0.48513"/>
<rect width="13.6697" height="33.8626" transform="matrix(1 0 0 -1 82.2678 57.6918)" fill="#00E291" fill-opacity="0.1"/>
<line y1="-0.242565" x2="60.2002" y2="-0.242565" transform="matrix(5.39366e-08 1 1 -3.54246e-08 110.107 17.5581)" stroke="#43464D" stroke-opacity="0.1" stroke-width="0.48513"/>
<rect width="13.6697" height="47.6585" transform="matrix(1 0 0 -1 102.233 71.4877)" fill="#FF6058" fill-opacity="0.1"/>
<line y1="-0.242565" x2="45.1501" y2="-0.242565" transform="matrix(0 1 1 0 128.944 32.6084)" stroke="#43464D" stroke-opacity="0.1" stroke-width="0.48513"/>
<rect width="13.6697" height="32.6084" transform="matrix(1 0 0 -1 122.198 71.4876)" fill="#00E291" fill-opacity="0.1"/>
<line y1="-0.242565" x2="27.2879" y2="-0.242565" transform="matrix(0 1 1 0 271.378 26.1906)" stroke="#43464D" stroke-opacity="0.1" stroke-width="0.48513"/>
<rect width="13.6697" height="19.7079" transform="matrix(1 0 0 -1 264.632 49.6891)" fill="#FF6058" fill-opacity="0.1"/>
<line y1="-0.242565" x2="35.1168" y2="-0.242565" transform="matrix(5.1252e-08 -1 -1 -1.49121e-07 209.982 65.2172)" stroke="#43464D" stroke-opacity="0.1" stroke-width="0.48513"/>
<rect width="13.6697" height="22.5751" transform="matrix(-1 -1.49121e-07 -5.1252e-08 1 217.438 36.371)" fill="#FF6058" fill-opacity="0.1"/>
<line x1="148.871" y1="-5.12366e-09" x2="148.871" y2="43.896" stroke="#43464D" stroke-opacity="0.1" stroke-width="0.48513"/>
<rect width="13.6697" height="31.3543" transform="matrix(1 0 0 -1 142.218 37.625)" fill="#00E291" fill-opacity="0.1"/>
<line y1="-0.242565" x2="43.896" y2="-0.242565" transform="matrix(1.05566e-07 -1 -1 -1.62895e-07 189.63 73.9961)" stroke="#43464D" stroke-opacity="0.1" stroke-width="0.48513"/>
<rect width="13.6697" height="31.3543" transform="matrix(-1 -1.49121e-07 -5.1252e-08 1 197.086 36.371)" fill="#00E291" fill-opacity="0.1"/>
<line y1="-0.242565" x2="56.1709" y2="-0.242565" transform="matrix(8.24966e-08 -1 -1 -2.08447e-07 291.544 57.5969)" stroke="#43464D" stroke-opacity="0.1" stroke-width="0.48513"/>
<rect width="13.6697" height="40.1221" transform="matrix(-1 -1.90821e-07 -4.0052e-08 1 299 9.44775)" fill="#00E291" fill-opacity="0.1"/>
<line y1="-0.242565" x2="75.2502" y2="-0.242565" transform="matrix(5.35197e-08 1 1 -3.57006e-08 170.022 0)" stroke="#43464D" stroke-opacity="0.1" stroke-width="0.48513"/>
<rect width="13.6697" height="62.7085" transform="matrix(1 0 0 -1 163.131 68.5853)" fill="#FF6058" fill-opacity="0.1"/>
</g>
</g>
<defs>
<filter id="filter0_b_0_3" x="-4" y="-4" width="307" height="141.432" filterUnits="userSpaceOnUse" color-interpolation-filters="sRGB">
<feFlood flood-opacity="0" result="BackgroundImageFix"/>
<feGaussianBlur in="BackgroundImageFix" stdDeviation="2"/>
<feComposite in2="SourceAlpha" operator="in" result="effect1_backgroundBlur_0_3"/>
<feBlend mode="normal" in="SourceGraphic" in2="effect1_backgroundBlur_0_3" result="shape"/>
</filter>
<filter id="filter1_b_0_3" x="-20" y="-10.7305" width="111.025" height="164.163" filterUnits="userSpaceOnUse" color-interpolation-filters="sRGB">
<feFlood flood-opacity="0" result="BackgroundImageFix"/>
<feGaussianBlur in="BackgroundImageFix" stdDeviation="10"/>
<feComposite in2="SourceAlpha" operator="in" result="effect1_backgroundBlur_0_3"/>
<feBlend mode="normal" in="SourceGraphic" in2="effect1_backgroundBlur_0_3" result="shape"/>
</filter>
<filter id="filter2_b_0_3" x="62.2678" y="-20" width="256.732" height="146.222" filterUnits="userSpaceOnUse" color-interpolation-filters="sRGB">
<feFlood flood-opacity="0" result="BackgroundImageFix"/>
<feGaussianBlur in="BackgroundImageFix" stdDeviation="10"/>
<feComposite in2="SourceAlpha" operator="in" result="effect1_backgroundBlur_0_3"/>
<feBlend mode="normal" in="SourceGraphic" in2="effect1_backgroundBlur_0_3" result="shape"/>
</filter>
</defs>
</svg>
