<svg width="309" height="85" viewBox="0 0 309 85" fill="none" xmlns="http://www.w3.org/2000/svg">
<line y1="-0.242565" x2="35.1534" y2="-0.242565" transform="matrix(-5.53096e-08 1 1 3.45453e-08 7.42603 49.8467)" stroke="#43464D" stroke-opacity="0.1" stroke-width="0.48513"/>
<rect width="14.1269" height="23.9682" transform="matrix(1 0 0 -1 0 79.4075)" fill="#FF6058" fill-opacity="0.1"/>
<line y1="-0.242565" x2="51.1322" y2="-0.242565" transform="matrix(7.61027e-08 1 1 -2.51067e-08 27.963 32.27)" stroke="#43464D" stroke-opacity="0.1" stroke-width="0.48513"/>
<rect width="14.1269" height="43.1428" transform="matrix(1 0 0 -1 20.4191 79.468)" fill="#00E291" fill-opacity="0.1"/>
<line y1="-0.242565" x2="28.7618" y2="-0.242565" transform="matrix(-5.53096e-08 1 1 3.45453e-08 47.6165 32.27)" stroke="#43464D" stroke-opacity="0.1" stroke-width="0.48513"/>
<rect width="14.1269" height="19.9735" transform="matrix(1 0 0 -1 39.9534 56.2383)" fill="#FF6058" fill-opacity="0.1"/>
<line x1="65.6355" y1="5.90503" x2="65.6355" y2="61.8309" stroke="#43464D" stroke-opacity="0.1" stroke-width="0.48513"/>
<rect width="14.1269" height="43.9417" transform="matrix(1 0 0 -1 59.2738 56.2383)" fill="#00E291" fill-opacity="0.1"/>
<line y1="-0.242565" x2="35.1534" y2="-0.242565" transform="matrix(-5.53096e-08 1 1 3.45453e-08 238.411 32.5129)" stroke="#43464D" stroke-opacity="0.1" stroke-width="0.48513"/>
<rect width="14.1269" height="23.9682" transform="matrix(1 0 0 -1 230.985 62.0737)" fill="#FF6058" fill-opacity="0.1"/>
<line y1="-0.242565" x2="51.1322" y2="-0.242565" transform="matrix(7.61027e-08 1 1 -2.51067e-08 260.216 14.9363)" stroke="#43464D" stroke-opacity="0.1" stroke-width="0.48513"/>
<rect width="14.1269" height="43.1428" transform="matrix(1 0 0 -1 252.672 62.1343)" fill="#00E291" fill-opacity="0.1"/>
<line y1="-0.242565" x2="27.9629" y2="-0.242565" transform="matrix(-5.53096e-08 1 1 3.45453e-08 93.0381 11.9841)" stroke="#43464D" stroke-opacity="0.1" stroke-width="0.48513"/>
<rect width="14.1269" height="21.5714" transform="matrix(1 0 0 -1 85.0192 36.7512)" fill="#00E291" fill-opacity="0.1"/>
<line y1="-0.242565" x2="38.3491" y2="-0.242565" transform="matrix(5.57405e-08 1 1 -3.42782e-08 113.79 11.1851)" stroke="#43464D" stroke-opacity="0.1" stroke-width="0.48513"/>
<rect width="14.1269" height="30.3597" transform="matrix(1 0 0 -1 105.652 45.5396)" fill="#FF6058" fill-opacity="0.1"/>
<line y1="-0.242565" x2="28.7618" y2="-0.242565" transform="matrix(0 1 1 0 133.256 20.7725)" stroke="#43464D" stroke-opacity="0.1" stroke-width="0.48513"/>
<rect width="14.1269" height="20.7724" transform="matrix(1 0 0 -1 126.284 45.5396)" fill="#00E291" fill-opacity="0.1"/>
<line y1="-0.242565" x2="17.3831" y2="-0.242565" transform="matrix(0 1 1 0 280.454 16.6841)" stroke="#43464D" stroke-opacity="0.1" stroke-width="0.48513"/>
<rect width="14.1269" height="12.5545" transform="matrix(1 0 0 -1 273.482 31.6533)" fill="#FF6058" fill-opacity="0.1"/>
<line y1="-0.242565" x2="22.3703" y2="-0.242565" transform="matrix(8.31458e-08 -1 -1 -9.19198e-08 217.005 41.5449)" stroke="#43464D" stroke-opacity="0.1" stroke-width="0.48513"/>
<rect width="14.1269" height="14.3809" transform="matrix(-1 -9.19198e-08 -8.31458e-08 1 224.711 23.1692)" fill="#FF6058" fill-opacity="0.1"/>
<line x1="153.842" y1="-4.95784e-09" x2="153.842" y2="27.9629" stroke="#43464D" stroke-opacity="0.1" stroke-width="0.48513"/>
<rect width="14.1269" height="19.9735" transform="matrix(1 0 0 -1 146.974 23.9683)" fill="#00E291" fill-opacity="0.1"/>
<line y1="-0.242565" x2="27.9629" y2="-0.242565" transform="matrix(1.71259e-07 -1 -1 -1.00411e-07 195.972 47.1375)" stroke="#43464D" stroke-opacity="0.1" stroke-width="0.48513"/>
<rect width="14.1269" height="19.9735" transform="matrix(-1 -9.19198e-08 -8.31458e-08 1 203.677 23.1692)" fill="#00E291" fill-opacity="0.1"/>
<line y1="-0.242565" x2="35.7824" y2="-0.242565" transform="matrix(1.33834e-07 -1 -1 -1.28489e-07 301.295 36.6909)" stroke="#43464D" stroke-opacity="0.1" stroke-width="0.48513"/>
<rect width="14.1269" height="25.5588" transform="matrix(-1 -1.17624e-07 -6.4976e-08 1 309 6.01855)" fill="#00E291" fill-opacity="0.1"/>
<line y1="-0.242565" x2="47.9364" y2="-0.242565" transform="matrix(5.53096e-08 1 1 -3.45453e-08 175.708 0)" stroke="#43464D" stroke-opacity="0.1" stroke-width="0.48513"/>
<rect width="14.1269" height="39.947" transform="matrix(1 0 0 -1 168.586 43.6907)" fill="#FF6058" fill-opacity="0.1"/>
</svg>
