<svg width="12" height="11" viewBox="0 0 12 11" fill="none" xmlns="http://www.w3.org/2000/svg">
<path fill-rule="evenodd" clip-rule="evenodd" d="M1.27702 0.211414C0.977569 -0.0776543 0.500482 -0.069239 0.211414 0.23021C-0.0776543 0.529658 -0.069239 1.00675 0.23021 1.29581L4.58535 5.49997L0.23021 9.70413C-0.069239 9.9932 -0.0776543 10.4703 0.211414 10.7697C0.500482 11.0692 0.977569 11.0776 1.27702 10.7885L5.67042 6.54743L10.0638 10.7885C10.3633 11.0776 10.8404 11.0692 11.1294 10.7697C11.4185 10.4703 11.4101 9.9932 11.1106 9.70413L6.75549 5.49997L11.1106 1.29581C11.4101 1.00675 11.4185 0.529658 11.1294 0.23021C10.8404 -0.069239 10.3633 -0.0776543 10.0638 0.211414L5.67042 4.45251L1.27702 0.211414Z" fill="#A4A4A4"/>
</svg>
